<svg width="125" height="100" viewBox="0 0 125 100" fill="none" xmlns="http://www.w3.org/2000/svg">
<path fill-rule="evenodd" clip-rule="evenodd" d="M36.7066 26.1639C33.77 27.7336 30.3175 28.5714 26.7857 28.5714C22.0497 28.5714 17.5077 27.0663 14.1588 24.3872C10.8099 21.7082 8.92857 18.0745 8.92857 14.2857C8.92857 11.4603 9.97587 8.69828 11.938 6.349C13.9002 3.99973 16.6891 2.16869 19.9521 1.08744C23.215 0.00618966 26.8055 -0.276715 30.2695 0.274503C33.7334 0.825719 36.9153 2.1863 39.4126 4.18419C41.91 6.18209 43.6107 8.72756 44.2997 11.4987C44.9888 14.2699 44.6351 17.1423 43.2836 19.7526C41.932 22.363 39.6432 24.5941 36.7066 26.1639ZM31.7462 8.34665C30.2779 7.56178 28.5516 7.14286 26.7857 7.14286C24.4177 7.14286 22.1467 7.89541 20.4723 9.23496C18.7978 10.5745 17.8571 12.3913 17.8571 14.2857C17.8571 15.6984 18.3808 17.0794 19.3619 18.2541C20.343 19.4287 21.7374 20.3442 23.3689 20.8849C25.0004 21.4255 26.7956 21.5669 28.5276 21.2913C30.2596 21.0157 31.8505 20.3354 33.0992 19.3365C34.3479 18.3375 35.1982 17.0648 35.5427 15.6792C35.8872 14.2936 35.7104 12.8575 35.0346 11.5523C34.3589 10.2471 33.2145 9.13152 31.7462 8.34665Z" fill="black"/>
<path d="M98.2143 35.7143V32.1429C98.2143 29.7978 97.6369 27.4758 96.5152 25.3092C95.3934 23.1427 93.7492 21.1741 91.6765 19.5159C89.6038 17.8578 87.1431 16.5424 84.4349 15.645C81.7267 14.7476 78.8242 14.2857 75.8929 14.2857H62.5V7.14286H75.8929C84.1809 7.14286 92.1294 9.77678 97.9899 14.4652C103.85 19.1536 107.143 25.5124 107.143 32.1429V35.7143H98.2143Z" fill="black"/>
<path d="M17.8571 64.2857V67.8571C17.8571 72.5932 20.2089 77.1352 24.3949 80.484C28.581 83.8329 34.2586 85.7143 40.1786 85.7143H53.5714V92.8571H40.1786C31.8906 92.8571 23.942 90.2232 18.0815 85.5348C12.221 80.8464 8.92857 74.4876 8.92857 67.8571V64.2857H17.8571Z" fill="black"/>
<path d="M40.1786 32.1429H13.3929C9.84085 32.1429 6.43433 33.2717 3.92268 35.281C1.41103 37.2903 0 40.0155 0 42.8571V50H8.92857V42.8571C8.92857 41.9099 9.39892 41.0015 10.2361 40.3318C11.0733 39.662 12.2089 39.2857 13.3929 39.2857H40.1786C41.3626 39.2857 42.4981 39.662 43.3353 40.3318C44.1725 41.0015 44.6429 41.9099 44.6429 42.8571V50H53.5714V42.8571C53.5714 40.0155 52.1604 37.2903 49.6488 35.281C47.1371 33.2717 43.7306 32.1429 40.1786 32.1429Z" fill="black"/>
<path d="M84.8214 82.1429C81.2694 82.1429 77.8629 83.2717 75.3512 85.281C72.8396 87.2903 71.4286 90.0155 71.4286 92.8571V100H80.3571V92.8571C80.3571 91.9099 80.8275 91.0015 81.6647 90.3318C82.5019 89.662 83.6374 89.2857 84.8214 89.2857H111.607C112.791 89.2857 113.927 89.662 114.764 90.3318C115.601 91.0015 116.071 91.9099 116.071 92.8571V100H125V92.8571C125 90.0155 123.589 87.2903 121.077 85.281C118.566 83.2717 115.159 82.1429 111.607 82.1429H84.8214Z" fill="black"/>
<path fill-rule="evenodd" clip-rule="evenodd" d="M83.3666 72.2224C81.4044 69.8732 80.3571 67.1112 80.3571 64.2857C80.3571 60.4969 82.2385 56.8633 85.5874 54.1842C88.9362 51.5051 93.4783 50 98.2143 50C101.746 50 105.199 50.8378 108.135 52.4076C111.072 53.9773 113.361 56.2084 114.712 58.8188C116.064 61.4292 116.417 64.3016 115.728 67.0727C115.039 69.8439 113.339 72.3894 110.841 74.3872C108.344 76.3851 105.162 77.7457 101.698 78.2969C98.2341 78.8481 94.6436 78.5652 91.3807 77.484C88.1177 76.4027 85.3288 74.5717 83.3666 72.2224ZM105.638 68.2541C106.619 67.0794 107.143 65.6984 107.143 64.2857C107.143 62.3913 106.202 60.5745 104.528 59.235C102.853 57.8954 100.582 57.1429 98.2143 57.1429C96.4484 57.1429 94.7221 57.5618 93.2538 58.3466C91.7855 59.1315 90.6412 60.2471 89.9654 61.5523C89.2896 62.8574 89.1128 64.2936 89.4573 65.6792C89.8018 67.0648 90.6522 68.3375 91.9008 69.3365C93.1495 70.3354 94.7404 71.0157 96.4724 71.2913C98.2044 71.5669 99.9996 71.4255 101.631 70.8848C103.263 70.3442 104.657 69.4287 105.638 68.2541Z" fill="black"/>
</svg>
