<svg width="129" height="101" viewBox="0 0 129 101" fill="none" xmlns="http://www.w3.org/2000/svg">
<path d="M9.64286 92.0953H64.5V100.429H9.64286C7.21802 100.429 4.8925 99.5506 3.17788 97.9878C1.46326 96.425 0.5 94.3054 0.5 92.0953V8.76192C0.5 6.55178 1.46326 4.43217 3.17788 2.86936C4.8925 1.30656 7.21802 0.428589 9.64286 0.428589H119.357C121.782 0.428589 124.108 1.30656 125.822 2.86936C127.537 4.43217 128.5 6.55178 128.5 8.76192V50.4286H119.357V8.76192H9.64286V92.0953Z" fill="black"/>
<path d="M18.7857 17.0953H64.5V25.4286H18.7857V17.0953Z" fill="black"/>
<path d="M64.5 33.7619H18.7857V42.0953H64.5V33.7619Z" fill="black"/>
<path d="M18.7857 50.4286H46.2143V58.7619H18.7857V50.4286Z" fill="black"/>
<path d="M101.071 54.5953L109.812 70.0244L128.5 72.4994L114.786 83.7619L118.31 100.429L101.071 91.0536L83.8326 100.429L87.3571 83.7619L73.6429 72.4994L92.8429 70.0244L101.071 54.5953Z" fill="black"/>
</svg>
