<svg width="91" height="64" viewBox="0 0 91 64" fill="none" xmlns="http://www.w3.org/2000/svg">
<path fill-rule="evenodd" clip-rule="evenodd" d="M44.5479 1.10356C45.6588 0.598007 46.9417 0.598007 48.0526 1.10356L87.8055 19.1945C90.9496 20.6253 91.0156 24.969 87.9164 26.4904L48.1635 46.0048C46.9912 46.5803 45.6093 46.5803 44.437 46.0048L4.68414 26.4904C1.5849 24.969 1.65093 20.6253 4.79504 19.1945L44.5479 1.10356ZM46.3003 4.77773L86.0532 22.8686L46.3003 42.3831L6.54738 22.8686L46.3003 4.77773Z" fill="#000"/>
<path d="M22.9593 37.7994C22.9593 36.6801 22.0304 35.7728 20.8846 35.7728C19.7387 35.7728 18.8098 36.6801 18.8098 37.7994V56.0394C18.8098 59.957 22.061 63.1328 26.0714 63.1328H66.5291C70.5396 63.1328 73.7907 59.957 73.7907 56.0394V37.7994C73.7907 36.6801 72.8618 35.7728 71.716 35.7728C70.5701 35.7728 69.6412 36.6801 69.6412 37.7994V56.0394C69.6412 57.7184 68.2479 59.0794 66.5291 59.0794H26.0714C24.3527 59.0794 22.9593 57.7184 22.9593 56.0394V37.7994Z" fill="#000"/>
<path fill-rule="evenodd" clip-rule="evenodd" d="M7.39869 29.1861C8.25808 29.1861 8.95476 29.8666 8.95476 30.7061V43.3728L14.0005 48.3016L7.39869 57.0528L0.796875 48.3016L5.84263 43.3728L5.84263 30.7061C5.84263 29.8666 6.5393 29.1861 7.39869 29.1861ZM3.52553 48.5024L7.39869 53.6365L11.2719 48.5024L7.39869 44.719L3.52553 48.5024Z" fill="#000"/>
</svg>
