<svg width="129" height="101" viewBox="0 0 129 101" fill="none" xmlns="http://www.w3.org/2000/svg">
<path d="M126.25 54.5749L101.5 79.9408C100 81.0465 98.1875 81.5993 96.0625 81.5993C93.9375 81.5993 92.125 81.0302 90.625 79.892C89.125 78.7538 88.375 77.3554 88.375 75.6969C88.375 74.0383 89.125 72.6237 90.625 71.453L111.25 50.3798L90.625 29.3066C89.125 28.1359 88.375 26.7375 88.375 25.1115C88.375 23.4855 89.125 22.0871 90.625 20.9164C92.125 19.7457 93.9375 19.1603 96.0625 19.1603C98.1875 19.1603 100 19.7457 101.5 20.9164L126.25 46.1847C127.75 47.3554 128.5 48.7538 128.5 50.3798C128.5 52.0058 127.75 53.4042 126.25 54.5749ZM64.5 94.1847C64.4167 94.3798 64.2917 94.7538 64.125 95.3066C63.9583 95.8595 63.8333 96.2335 63.75 96.4286L63.3125 97.453L62.6875 98.4774L61.75 99.2579L60.4375 99.9408L58.75 100.282L56.5 100.429C54.5 100.429 52.5833 99.6156 50.75 97.9896C48.9167 96.3635 48.25 94.8026 48.75 93.3066L64.5 6.67249C65.9167 2.50989 69.9167 0.428589 76.5 0.428589C78.3333 0.428589 79.5625 1.19282 80.1875 2.72127C80.8125 4.24973 80.8333 5.85948 80.25 7.55054L64.5 94.1847ZM38.375 79.892C36.875 81.0302 35.0625 81.5993 32.9375 81.5993C30.8125 81.5993 29 81.0465 27.5 79.9408L2.75 54.5749C1.25 53.4042 0.5 52.0058 0.5 50.3798C0.5 48.7538 1.25 47.3554 2.75 46.1847L27.5 20.9164C29 19.7457 30.8125 19.1603 32.9375 19.1603C35.0625 19.1603 36.875 19.7457 38.375 20.9164C39.875 22.0871 40.625 23.4855 40.625 25.1115C40.625 26.7375 39.875 28.1359 38.375 29.3066L17.75 50.3798L38.375 71.453C39.875 72.6237 40.625 74.0383 40.625 75.6969C40.625 77.3554 39.875 78.7538 38.375 79.892Z" fill="black"/>
</svg>
