<svg width="125" height="100" viewBox="0 0 125 100" fill="none" xmlns="http://www.w3.org/2000/svg">
<path d="M93.784 2.35295C95.2419 -0.78431 98.8868 -0.784317 100.345 2.35294L116.337 36.7647C117.795 39.902 115.972 43.8235 113.056 43.8235H81.0724C78.1565 43.8235 76.3341 39.902 77.792 36.7647L93.784 2.35295Z" fill="black"/>
<path d="M80.1353 20.5882H27.4621C23.2781 20.5882 19.8864 24.802 19.8864 30V85.8824H25.5682V30C25.5682 28.7005 26.4161 27.6471 27.4621 27.6471H76.8549L80.1353 20.5882Z" fill="black"/>
<path d="M99.4318 49.1176V85.8824H105.114V49.1176H99.4318Z" fill="black"/>
<path d="M0 90.5882H42.6136V95.2941H82.3864V90.5882H125C125 95.7862 121.608 100 117.424 100H7.57576C3.39178 100 0 95.7862 0 90.5882Z" fill="black"/>
</svg>
