<svg width="10" height="10" viewBox="0 0 10 10" fill="none" xmlns="http://www.w3.org/2000/svg">
<path d="M0.779113 1.48748V0.646623C0.779113 0.290584 1.06697 0.00272245 1.42112 0.00461636L8.78242 0.00272227C9.13845 0.00272229 9.42632 0.290584 9.42442 0.644729L9.42442 8.00792C9.42442 8.36396 9.13656 8.65182 8.78242 8.64993L7.94156 8.64993C7.58173 8.64993 7.29198 8.3526 7.29955 7.99277L7.4075 3.5366L1.96465 8.97945C1.71277 9.23133 1.30749 9.23133 1.05561 8.97945L0.449587 8.37343C0.197709 8.12155 0.197709 7.71627 0.449588 7.46439L5.89244 2.02154L1.43627 2.12949C1.07455 2.13896 0.777219 1.8492 0.779113 1.48748Z" fill="white"/>
</svg>
