<svg width="91" height="62" viewBox="0 0 91 62" fill="none" xmlns="http://www.w3.org/2000/svg">
<path fill-rule="evenodd" clip-rule="evenodd" d="M44.2078 3.00915L24.7464 12.5219V58.7697H40.2547C41.0944 58.7697 41.7751 59.4011 41.7751 60.1799C41.7751 60.9587 41.0944 61.59 40.2547 61.59H23.2259C22.3862 61.59 21.7055 60.9587 21.7055 60.1799V12.3517C21.7055 11.4098 22.2679 10.5454 23.1663 10.1062L43.2359 0.296229C45.0584 -0.59461 47.2486 0.631043 47.2486 2.54172V58.7697H65.1897V12.188L49.1851 2.99908C48.4712 2.58916 48.2507 1.72004 48.6926 1.05786C49.1346 0.39567 50.0717 0.191172 50.7857 0.601096L89.1004 22.5993C89.4763 22.8151 89.7154 23.1582 89.7931 23.5314C90.0006 23.7724 90.1246 24.078 90.1246 24.4105V59.0518C90.1246 60.4536 88.8993 61.59 87.3879 61.59H74.0081C72.4967 61.59 71.2714 60.4536 71.2714 59.0518V15.6798L68.2305 13.9339V59.0518C68.2305 60.4536 67.0052 61.59 65.4938 61.59H46.9446C45.4331 61.59 44.2078 60.4536 44.2078 59.0518V3.00915ZM74.3122 17.4257L87.0838 24.7584V58.7697H74.3122V17.4257Z" fill="black"/>
<path d="M17.5648 16.2951C18.303 15.9239 18.577 15.0679 18.1768 14.3833C17.7765 13.6986 16.8537 13.4445 16.1155 13.8157L2.15599 20.8351C1.27337 21.279 0.723633 22.1354 0.723633 23.0665V59.0518C0.723633 60.4536 1.94893 61.59 3.4604 61.59H15.6238C17.1353 61.59 18.3606 60.4536 18.3606 59.0518V22.3949C18.3606 21.6161 17.6798 20.9848 16.8401 20.9848C16.0004 20.9848 15.3197 21.6161 15.3197 22.3949V58.7697H3.76448V23.2344L17.5648 16.2951Z" fill="black"/>
</svg>
