<svg width="41" height="41" viewBox="0 0 41 41" fill="none" xmlns="http://www.w3.org/2000/svg">
<path d="M0.5 29.7892V8.75221C0.5 6.97443 0.988759 5.50941 1.96628 4.35715C2.94379 3.20488 4.42962 2.34892 6.42375 1.78925C8.41789 1.22958 10.4902 0.850974 12.6408 0.653444C14.7913 0.455913 17.411 0.357147 20.5 0.357147C23.589 0.357147 26.2087 0.455913 28.3592 0.653444C30.5098 0.850974 32.5821 1.22958 34.5762 1.78925C36.5704 2.34892 38.0562 3.20488 39.0337 4.35715C40.0112 5.50941 40.5 6.97443 40.5 8.75221V29.7892C40.5 31.6329 39.6789 33.2131 38.0367 34.53V38.2831C38.0367 38.8098 37.7825 39.2872 37.2742 39.7152C36.7659 40.1432 36.1989 40.3571 35.5733 40.3571H32.9927C32.3671 40.3571 31.8001 40.1432 31.2918 39.7152C30.7835 39.2872 30.5293 38.8098 30.5293 38.2831V36.1102H10.4707V38.2831C10.4707 38.8098 10.2361 39.2872 9.76686 39.7152C9.29765 40.1432 8.71114 40.3571 8.00733 40.3571H5.54399C4.84018 40.3571 4.23412 40.1432 3.72581 39.7152C3.2175 39.2872 2.96334 38.8098 2.96334 38.2831V34.53C1.32111 33.2131 0.5 31.6329 0.5 29.7892ZM9.239 31.9621C10.2947 31.9621 11.194 31.6493 11.9369 31.0238C12.6799 30.3983 13.0513 29.6411 13.0513 28.7522C13.0513 27.8633 12.6799 27.1226 11.9369 26.53C11.194 25.9374 10.2947 25.6411 9.239 25.6411C8.18328 25.6411 7.30352 25.9374 6.59971 26.53C5.89589 27.1226 5.54399 27.8633 5.54399 28.7522C5.54399 29.6411 5.89589 30.3983 6.59971 31.0238C7.30352 31.6493 8.18328 31.9621 9.239 31.9621ZM31.761 31.9621C32.8167 31.9621 33.716 31.6493 34.4589 31.0238C35.2019 30.3983 35.5733 29.6411 35.5733 28.7522C35.5733 27.8633 35.2019 27.1226 34.4589 26.53C33.716 25.9374 32.8167 25.6411 31.761 25.6411C30.7053 25.6411 29.8255 25.9374 29.1217 26.53C28.4179 27.1226 28.066 27.8633 28.066 28.7522C28.066 29.6411 28.4179 30.3983 29.1217 31.0238C29.8255 31.6493 30.7053 31.9621 31.761 31.9621ZM35.5733 19.3201V8.75221H5.54399V19.3201H35.5733Z" fill="black"/>
</svg>
