<svg width="24" height="17" viewBox="0 0 24 17" fill="none" xmlns="http://www.w3.org/2000/svg">
<path d="M23.855 7.82027C21.5954 3.41151 17.1221 0.428589 12 0.428589C6.87791 0.428589 2.40332 3.41359 0.144977 7.82069C0.0496614 8.00923 0 8.21754 0 8.42881C0 8.64008 0.0496614 8.84839 0.144977 9.03694C2.40457 13.4457 6.87791 16.4286 12 16.4286C17.1221 16.4286 21.5967 13.4436 23.855 9.03652C23.9503 8.84798 24 8.63966 24 8.4284C24 8.21713 23.9503 8.00882 23.855 7.82027ZM12 14.4286C10.8133 14.4286 9.65327 14.0767 8.66657 13.4174C7.67988 12.7581 6.91084 11.8211 6.45671 10.7247C6.00259 9.62835 5.88377 8.42195 6.11528 7.25806C6.34679 6.09417 6.91823 5.02507 7.75735 4.18596C8.59647 3.34684 9.66557 2.77539 10.8295 2.54388C11.9933 2.31237 13.1997 2.43119 14.2961 2.88532C15.3925 3.33944 16.3295 4.10848 16.9888 5.09518C17.6481 6.08187 18 7.24191 18 8.4286C18.0004 9.21664 17.8455 9.99704 17.5441 10.7252C17.2427 11.4533 16.8007 12.1149 16.2435 12.6721C15.6863 13.2293 15.0247 13.6713 14.2966 13.9727C13.5684 14.2741 12.788 14.429 12 14.4286ZM12 4.4286C11.643 4.43359 11.2882 4.4867 10.9454 4.58651C11.228 4.97054 11.3636 5.44313 11.3276 5.91858C11.2917 6.39402 11.0865 6.84083 10.7494 7.17798C10.4122 7.51513 9.96541 7.72029 9.48997 7.75625C9.01453 7.79222 8.54194 7.65661 8.15791 7.37402C7.93923 8.17968 7.9787 9.03364 8.27078 9.81569C8.56285 10.5977 9.09282 11.2685 9.78608 11.7336C10.4793 12.1987 11.301 12.4346 12.1354 12.4083C12.9698 12.3819 13.7749 12.0946 14.4375 11.5867C15.1 11.0787 15.5866 10.3759 15.8287 9.57693C16.0708 8.77801 16.0563 7.92326 15.7872 7.13301C15.5181 6.34275 15.008 5.65678 14.3286 5.17164C13.6492 4.68651 12.8348 4.42663 12 4.4286Z" fill="#3798A6"/>
</svg>
