<svg width="90" height="63" viewBox="0 0 90 63" fill="none" xmlns="http://www.w3.org/2000/svg">
<path fill-rule="evenodd" clip-rule="evenodd" d="M44.1275 0.765885C45.2384 0.26033 46.5213 0.26033 47.6322 0.765885L87.3851 18.8568C90.5292 20.2876 90.5952 24.6313 87.496 26.1527L47.7431 45.6671C46.5708 46.2426 45.1889 46.2426 44.0166 45.6671L4.26373 26.1527C1.16449 24.6313 1.23052 20.2876 4.37463 18.8568L44.1275 0.765885ZM45.8799 4.44005L85.6327 22.531L45.8799 42.0454L6.12697 22.531L45.8799 4.44005Z" fill="black"/>
<path d="M22.5389 37.4618C22.5389 36.3425 21.61 35.4351 20.4642 35.4351C19.3183 35.4351 18.3894 36.3425 18.3894 37.4618V55.7018C18.3894 59.6193 21.6406 62.7951 25.651 62.7951H66.1087C70.1192 62.7951 73.3703 59.6193 73.3703 55.7018V37.4618C73.3703 36.3425 72.4414 35.4351 71.2956 35.4351C70.1497 35.4351 69.2208 36.3425 69.2208 37.4618V55.7018C69.2208 57.3807 67.8275 58.7418 66.1087 58.7418H25.651C23.9323 58.7418 22.5389 57.3807 22.5389 55.7018V37.4618Z" fill="black"/>
<path fill-rule="evenodd" clip-rule="evenodd" d="M6.97828 28.8484C7.83767 28.8484 8.53435 29.529 8.53435 30.3684L8.53435 43.0351L13.5801 47.964L6.97828 56.7151L0.376465 47.964L5.42222 43.0351L5.42222 30.3684C5.42222 29.529 6.11889 28.8484 6.97828 28.8484ZM3.10512 48.1647L6.97828 53.2988L10.8514 48.1647L6.97828 44.3813L3.10512 48.1647Z" fill="black"/>
</svg>
