<svg width="525" height="492" viewBox="0 0 525 492" fill="none" xmlns="http://www.w3.org/2000/svg">
<circle cx="260.817" cy="56.2831" r="12.5" fill="#3798A6" stroke="black" stroke-width="2"/>
<circle cx="260.817" cy="429.107" r="12.5" fill="#3798A6" stroke="black" stroke-width="2"/>
<path d="M260.878 70L260.878 417.995" stroke="black" stroke-width="2"/>
<path d="M56.7731 22.3398H63.6774V24H54.527C54.527 21.8516 55.0836 20.2695 56.4313 18.8828C57.1051 18.1895 58.0133 17.5254 59.1656 16.8711C60.4059 16.168 61.0406 15.6211 61.3531 14.9863C61.4996 14.6738 61.5777 14.3125 61.5777 13.8926C61.5777 12.5645 60.7086 11.7734 59.3316 11.7734C57.7301 11.7734 56.7535 12.7598 56.5875 14.5664H54.5856C54.7809 11.8027 56.5875 10.084 59.3609 10.084C61.9195 10.084 63.5699 11.5391 63.5699 13.9707C63.5699 15.1719 63.1793 16.0605 62.1832 16.9492C61.6852 17.3984 60.9918 17.8867 60.1031 18.4043C58.609 19.293 57.7203 20.0254 57.2223 20.8848C56.9781 21.3145 56.8219 21.8027 56.7731 22.3398ZM70.7184 24.3223C68.609 24.3223 66.9781 23.1797 66.1188 21.041C65.6793 19.9766 65.4645 18.6973 65.4645 17.2031C65.4645 14.2246 66.3727 12.0469 67.9547 10.9238C68.7457 10.3672 69.6637 10.084 70.7184 10.084C72.8277 10.084 74.4684 11.2266 75.3375 13.3652C75.7672 14.4297 75.982 15.709 75.982 17.2031C75.982 20.1816 75.0836 22.3594 73.4918 23.4824C72.7008 24.0391 71.7731 24.3223 70.7184 24.3223ZM70.7184 22.584C72.7984 22.584 73.9215 20.4648 73.9215 17.2031C73.9215 13.9414 72.7984 11.8223 70.7184 11.8223C68.6578 11.8223 67.525 13.9414 67.525 17.2031C67.525 20.4648 68.6578 22.584 70.7184 22.584ZM81.109 10.4062H82.5836V24H80.6012V13.834C80.2399 14.2148 79.7711 14.5664 79.1754 14.8789C78.5797 15.2012 77.9547 15.4258 77.3102 15.5625V13.6875C79.2633 13.209 80.65 12.0078 81.109 10.4062ZM87.2809 22.3398H94.1852V24H85.0348C85.0348 21.8516 85.5914 20.2695 86.9391 18.8828C87.6129 18.1895 88.5211 17.5254 89.6734 16.8711C90.9137 16.168 91.5484 15.6211 91.8609 14.9863C92.0074 14.6738 92.0856 14.3125 92.0856 13.8926C92.0856 12.5645 91.2164 11.7734 89.8395 11.7734C88.2379 11.7734 87.2613 12.7598 87.0953 14.5664H85.0934C85.2887 11.8027 87.0953 10.084 89.8688 10.084C92.4274 10.084 94.0777 11.5391 94.0777 13.9707C94.0777 15.1719 93.6871 16.0605 92.691 16.9492C92.193 17.3984 91.4996 17.8867 90.6109 18.4043C89.1168 19.293 88.2281 20.0254 87.7301 20.8848C87.4859 21.3145 87.3297 21.8027 87.2809 22.3398Z" fill="black"/>
<path d="M39.1363 52.332C37.7594 52.332 36.5191 52.0293 35.4352 51.4141C34.3512 50.7988 33.5016 49.9492 32.8863 48.8652C32.2711 47.7812 31.9684 46.5605 31.9684 45.2031C31.9684 43.8457 32.2711 42.6152 32.8863 41.5312C33.5016 40.4473 34.3512 39.6074 35.4352 38.9922C36.5191 38.377 37.7594 38.0742 39.1363 38.0742C40.4742 38.0742 41.6461 38.3379 42.6324 38.8652C43.6188 39.4023 44.3902 40.0859 44.9371 40.9258C45.4742 41.7754 45.7867 42.6641 45.8746 43.6113H43.8141C43.3844 41.3066 41.6461 39.8906 39.1656 39.8906C37.1734 39.8906 35.6012 40.8281 34.7613 42.4297C34.3414 43.2402 34.1266 44.1582 34.1266 45.2031C34.1266 47.2832 35.0055 48.9531 36.5289 49.8418C37.2906 50.291 38.1695 50.5156 39.1656 50.5156C41.6461 50.5156 43.3844 49.0996 43.8141 46.7949H45.8746C45.7867 47.7422 45.4742 48.6309 44.9371 49.4707C44.3902 50.3203 43.6188 51.0039 42.6324 51.5312C41.6461 52.0684 40.4742 52.332 39.1363 52.332ZM57.2711 46.7363C57.2711 47.1562 57.2516 47.4785 57.2223 47.7031H49.0875C49.2242 49.5098 50.4938 50.7012 52.3199 50.7012C53.7555 50.7012 54.859 50.0273 55.1813 48.9629H57.1149C56.6461 51.0039 54.7809 52.3125 52.3199 52.3125C50.2887 52.3125 48.6578 51.3945 47.7789 49.793C47.3395 48.9922 47.1149 48.0742 47.1149 47.0293C47.1149 44.959 48.1012 43.2988 49.6734 42.4199C50.4547 41.9805 51.3238 41.7656 52.2711 41.7656C54.2731 41.7656 55.8356 42.6445 56.6559 44.1484C57.066 44.9004 57.2711 45.7695 57.2711 46.7363ZM52.2906 43.3379C50.5426 43.3379 49.2926 44.4902 49.0973 46.1992H55.3961C55.318 44.5098 54.0875 43.3379 52.2906 43.3379ZM61.2262 52H59.3024V42.0781H60.7281C60.7574 42.5762 60.7965 42.9473 60.8258 43.1914C60.8746 43.5137 60.9625 43.6406 61.1188 43.6406C61.2457 43.6406 61.3043 43.6016 61.4606 43.377C62.2418 42.3223 63.2867 41.7656 64.7418 41.7656C67.1539 41.7656 68.5113 43.2598 68.5113 45.916V52H66.5875V46.1699C66.5875 44.4219 65.777 43.4648 64.3316 43.4648C63.3453 43.4648 62.5836 43.8457 62.027 44.6074C61.4899 45.3594 61.2262 46.4336 61.2262 47.8301V52ZM75.0152 52.1074C72.7984 52.1074 71.7731 51.0723 71.7731 48.6602V43.6699H69.8004V42.0781H70.9234C71.6363 42.0781 71.9684 41.8438 72.0953 41.2578C72.1441 41.0234 72.193 40.6914 72.2418 40.2715C72.2906 39.8516 72.3297 39.4805 72.3492 39.1582H73.6774V42.0781H76.4703V43.6699H73.6774V48.5137C73.6774 49.9492 74.1559 50.5254 75.4352 50.5254C75.7867 50.5254 76.1969 50.4766 76.6559 50.3691V51.8926C76.4801 51.9512 76.2359 52 75.9137 52.0488C75.5914 52.0879 75.2984 52.1074 75.0152 52.1074ZM87.6422 46.7363C87.6422 47.1562 87.6227 47.4785 87.5934 47.7031H79.4586C79.5953 49.5098 80.8649 50.7012 82.691 50.7012C84.1266 50.7012 85.2301 50.0273 85.5524 48.9629H87.4859C87.0172 51.0039 85.152 52.3125 82.691 52.3125C80.6598 52.3125 79.0289 51.3945 78.15 49.793C77.7106 48.9922 77.4859 48.0742 77.4859 47.0293C77.4859 44.959 78.4723 43.2988 80.0445 42.4199C80.8258 41.9805 81.6949 41.7656 82.6422 41.7656C84.6441 41.7656 86.2066 42.6445 87.027 44.1484C87.4371 44.9004 87.6422 45.7695 87.6422 46.7363ZM82.6617 43.3379C80.9137 43.3379 79.6637 44.4902 79.4684 46.1992H85.7672C85.6891 44.5098 84.4586 43.3379 82.6617 43.3379ZM91.5973 52H89.6734V42.0781H91.0211C91.0406 42.5566 91.0797 42.8984 91.1481 43.0938C91.2164 43.2793 91.275 43.3184 91.3922 43.3184C91.4801 43.3184 91.5191 43.2793 91.6266 43.1328C92.0953 42.3809 92.9156 41.9414 94.0094 41.9414C94.3316 41.9414 94.5953 41.9609 94.8102 42.0098V43.7188C94.4684 43.6504 94.1559 43.6211 93.8531 43.6211C93.1305 43.6211 92.5836 43.8164 92.2027 44.207C91.8024 44.6367 91.5973 45.3398 91.5973 46.3066V52ZM105.162 52.3125C104.127 52.3125 103.199 52.0879 102.369 51.6289C101.539 51.1797 100.894 50.5547 100.435 49.7441C99.9664 48.9434 99.732 48.0449 99.732 47.0391C99.732 46.0332 99.9664 45.1348 100.435 44.3242C100.894 43.5234 101.539 42.8984 102.369 42.4395C103.199 41.9902 104.127 41.7656 105.162 41.7656C106.197 41.7656 107.125 41.9902 107.955 42.4395C108.785 42.8984 109.429 43.5234 109.898 44.3242C110.367 45.125 110.601 46.0332 110.601 47.0391C110.601 49.0605 109.605 50.7305 107.955 51.6289C107.125 52.0879 106.197 52.3125 105.162 52.3125ZM105.162 50.6523C106.519 50.6523 107.603 50.0078 108.189 48.9141C108.472 48.3672 108.619 47.7422 108.619 47.0391C108.619 45.6328 108.013 44.5 106.968 43.8848C106.441 43.582 105.836 43.4258 105.162 43.4258C103.121 43.4258 101.714 44.9199 101.714 47.0391C101.714 49.1582 103.121 50.6523 105.162 50.6523ZM115.162 52H113.257V43.6699H111.285V42.0781H113.257V41.043C113.257 38.7676 114.38 37.6348 116.558 37.6348C117.115 37.6348 117.779 37.7422 118.14 37.8984V39.4023C117.769 39.2754 117.369 39.2168 116.939 39.2168C115.699 39.2168 115.162 39.8418 115.162 41.1016V42.0781H117.945V43.6699H115.162V52ZM35.4645 78.252V80H26.2555V66.4062H35.1129V68.1543H28.3063V72.2266H34.234V73.9648H28.3063V78.252H35.4645ZM45.7965 70.0781L42.2516 74.9609L45.9039 80H43.5797L40.943 76.2402L38.3063 80H36.1774L39.7809 75.0293L36.1676 70.0781H38.5113L41.0895 73.7695L43.6774 70.0781H45.7965ZM51.4703 80.3125C49.4098 80.3125 47.7301 79.3652 46.8316 77.7637C46.3727 76.9629 46.1481 76.0547 46.1481 75.0391C46.1481 72.998 47.0953 71.3379 48.7066 70.4395C49.5172 69.9902 50.4352 69.7656 51.4703 69.7656C53.5016 69.7656 54.9859 70.6348 55.777 71.8848C56.1676 72.5098 56.3922 73.1641 56.4508 73.8574H54.5465C54.4 73.1055 54.0582 72.5195 53.5211 72.0801C52.9742 71.6406 52.3004 71.4258 51.4996 71.4258C50.1715 71.4258 49.1168 72.0605 48.5504 73.1543C48.2672 73.7109 48.1207 74.3359 48.1207 75.0391C48.1207 76.4453 48.7164 77.5879 49.7418 78.1934C50.2496 78.4961 50.8356 78.6523 51.4996 78.6523C52.3004 78.6523 52.9742 78.4375 53.5211 77.998C54.0582 77.5586 54.4 76.9727 54.5465 76.2207H56.4508C56.3336 77.5977 55.5426 78.9355 54.0875 79.7168C53.3551 80.1172 52.4859 80.3125 51.4703 80.3125ZM67.818 74.7363C67.818 75.1562 67.7984 75.4785 67.7691 75.7031H59.6344C59.7711 77.5098 61.0406 78.7012 62.8668 78.7012C64.3024 78.7012 65.4059 78.0273 65.7281 76.9629H67.6617C67.193 79.0039 65.3277 80.3125 62.8668 80.3125C60.8356 80.3125 59.2047 79.3945 58.3258 77.793C57.8863 76.9922 57.6617 76.0742 57.6617 75.0293C57.6617 72.959 58.6481 71.2988 60.2203 70.4199C61.0016 69.9805 61.8707 69.7656 62.818 69.7656C64.8199 69.7656 66.3824 70.6445 67.2027 72.1484C67.6129 72.9004 67.818 73.7695 67.818 74.7363ZM62.8375 71.3379C61.0895 71.3379 59.8395 72.4902 59.6441 74.1992H65.943C65.8649 72.5098 64.6344 71.3379 62.8375 71.3379ZM71.8024 65.8789V80H69.8688V65.8789H71.8024ZM76.4703 65.8789V80H74.5367V65.8789H76.4703ZM88.6578 74.7363C88.6578 75.1562 88.6383 75.4785 88.609 75.7031H80.4742C80.6109 77.5098 81.8805 78.7012 83.7066 78.7012C85.1422 78.7012 86.2457 78.0273 86.568 76.9629H88.5016C88.0328 79.0039 86.1676 80.3125 83.7066 80.3125C81.6754 80.3125 80.0445 79.3945 79.1656 77.793C78.7262 76.9922 78.5016 76.0742 78.5016 75.0293C78.5016 72.959 79.4879 71.2988 81.0602 70.4199C81.8414 69.9805 82.7106 69.7656 83.6578 69.7656C85.6598 69.7656 87.2223 70.6445 88.0426 72.1484C88.4527 72.9004 88.6578 73.7695 88.6578 74.7363ZM83.6774 71.3379C81.9293 71.3379 80.6793 72.4902 80.484 74.1992H86.7828C86.7047 72.5098 85.4742 71.3379 83.6774 71.3379ZM92.6129 80H90.6891V70.0781H92.1149C92.1441 70.5762 92.1832 70.9473 92.2125 71.1914C92.2613 71.5137 92.3492 71.6406 92.5055 71.6406C92.6324 71.6406 92.691 71.6016 92.8473 71.377C93.6285 70.3223 94.6734 69.7656 96.1285 69.7656C98.5406 69.7656 99.8981 71.2598 99.8981 73.916V80H97.9742V74.1699C97.9742 72.4219 97.1637 71.4648 95.7184 71.4648C94.732 71.4648 93.9703 71.8457 93.4137 72.6074C92.8766 73.3594 92.6129 74.4336 92.6129 75.8301V80ZM107.095 80.3125C105.035 80.3125 103.355 79.3652 102.457 77.7637C101.998 76.9629 101.773 76.0547 101.773 75.0391C101.773 72.998 102.72 71.3379 104.332 70.4395C105.142 69.9902 106.06 69.7656 107.095 69.7656C109.127 69.7656 110.611 70.6348 111.402 71.8848C111.793 72.5098 112.017 73.1641 112.076 73.8574H110.171C110.025 73.1055 109.683 72.5195 109.146 72.0801C108.599 71.6406 107.925 71.4258 107.125 71.4258C105.796 71.4258 104.742 72.0605 104.175 73.1543C103.892 73.7109 103.746 74.3359 103.746 75.0391C103.746 76.4453 104.341 77.5879 105.367 78.1934C105.875 78.4961 106.461 78.6523 107.125 78.6523C107.925 78.6523 108.599 78.4375 109.146 77.998C109.683 77.5586 110.025 76.9727 110.171 76.2207H112.076C111.959 77.5977 111.168 78.9355 109.713 79.7168C108.98 80.1172 108.111 80.3125 107.095 80.3125ZM123.443 74.7363C123.443 75.1562 123.423 75.4785 123.394 75.7031H115.259C115.396 77.5098 116.666 78.7012 118.492 78.7012C119.927 78.7012 121.031 78.0273 121.353 76.9629H123.287C122.818 79.0039 120.953 80.3125 118.492 80.3125C116.461 80.3125 114.83 79.3945 113.951 77.793C113.511 76.9922 113.287 76.0742 113.287 75.0293C113.287 72.959 114.273 71.2988 115.845 70.4199C116.627 69.9805 117.496 69.7656 118.443 69.7656C120.445 69.7656 122.007 70.6445 122.828 72.1484C123.238 72.9004 123.443 73.7695 123.443 74.7363ZM118.463 71.3379C116.714 71.3379 115.464 72.4902 115.269 74.1992H121.568C121.49 72.5098 120.259 71.3379 118.463 71.3379Z" fill="#1C1D20"/>
<path d="M44.1637 101.383V106H42.5152V95.125H49.3199V96.5156H44.1637V99.9922H48.7809V101.383H44.1637ZM54.3434 106.25C53.5152 106.25 52.7731 106.07 52.109 105.703C51.4449 105.344 50.9293 104.844 50.5621 104.195C50.1871 103.555 49.9996 102.836 49.9996 102.031C49.9996 101.227 50.1871 100.508 50.5621 99.8594C50.9293 99.2188 51.4449 98.7188 52.109 98.3516C52.7731 97.9922 53.5152 97.8125 54.3434 97.8125C55.1715 97.8125 55.9137 97.9922 56.5777 98.3516C57.2418 98.7188 57.7574 99.2188 58.1324 99.8594C58.5074 100.5 58.6949 101.227 58.6949 102.031C58.6949 103.648 57.8981 104.984 56.5777 105.703C55.9137 106.07 55.1715 106.25 54.3434 106.25ZM54.3434 104.922C55.4293 104.922 56.2965 104.406 56.7652 103.531C56.9918 103.094 57.109 102.594 57.109 102.031C57.109 100.906 56.6246 100 55.7887 99.5078C55.3668 99.2656 54.8824 99.1406 54.3434 99.1406C52.7106 99.1406 51.5856 100.336 51.5856 102.031C51.5856 103.727 52.7106 104.922 54.3434 104.922ZM63.2574 106.25C61.2965 106.25 60.1871 105.039 60.1871 102.922V98.0625H61.7262V102.719C61.7262 104.117 62.3746 104.891 63.5621 104.891C64.3668 104.891 64.9762 104.602 65.3746 104.031C65.7809 103.445 65.984 102.633 65.984 101.586V98.0625H67.5231V106H66.3824C66.3824 105.758 66.3434 105.383 66.3043 105.172C66.2652 104.898 66.2027 104.812 66.0699 104.812C65.9762 104.812 65.9215 104.859 65.7965 105.016C65.1793 105.828 64.3902 106.25 63.2574 106.25ZM71.2262 106H69.6871V98.0625H70.8277C70.8512 98.4609 70.8824 98.7578 70.9059 98.9531C70.9449 99.2109 71.0152 99.3125 71.1402 99.3125C71.2418 99.3125 71.2887 99.2812 71.4137 99.1016C72.0387 98.2578 72.8746 97.8125 74.0387 97.8125C75.9684 97.8125 77.0543 99.0078 77.0543 101.133V106H75.5152V101.336C75.5152 99.9375 74.8668 99.1719 73.7106 99.1719C72.9215 99.1719 72.3121 99.4766 71.8668 100.086C71.4371 100.688 71.2262 101.547 71.2262 102.664V106ZM82.5777 106.25C81.0699 106.25 79.7887 105.484 79.0856 104.195C78.734 103.555 78.5543 102.836 78.5543 102.031C78.5543 101.234 78.734 100.516 79.0856 99.8672C79.4371 99.2266 79.9215 98.7266 80.5387 98.3594C81.1559 97.9922 81.8512 97.8125 82.6246 97.8125C83.7184 97.8125 84.6324 98.2344 85.2496 98.8984C85.3356 98.9844 85.359 99 85.4215 99C85.5152 99 85.5621 98.9219 85.5621 98.7656V94.7031H87.109V106H85.9527C85.9449 105.703 85.9137 105.414 85.8746 105.125C85.8434 104.883 85.7965 104.812 85.6715 104.812C85.5699 104.812 85.5074 104.867 85.359 105.031C84.6871 105.844 83.7574 106.25 82.5777 106.25ZM82.8746 104.922C83.6559 104.922 84.3121 104.648 84.8043 104.156C85.3277 103.633 85.6168 102.898 85.6168 102.031C85.6168 101.164 85.3277 100.43 84.8043 99.9062C84.3121 99.4141 83.6559 99.1406 82.8746 99.1406C81.8199 99.1406 80.9527 99.6562 80.4918 100.531C80.2574 100.969 80.1402 101.469 80.1402 102.031C80.1402 103.156 80.6246 104.062 81.4606 104.555C81.8746 104.797 82.3512 104.922 82.8746 104.922ZM96.8434 101.789C96.8434 102.125 96.8277 102.383 96.8043 102.562H90.2965C90.4059 104.008 91.4215 104.961 92.8824 104.961C94.0309 104.961 94.9137 104.422 95.1715 103.57H96.7184C96.3434 105.203 94.8512 106.25 92.8824 106.25C91.2574 106.25 89.9527 105.516 89.2496 104.234C88.8981 103.594 88.7184 102.859 88.7184 102.023C88.7184 100.367 89.5074 99.0391 90.7652 98.3359C91.3902 97.9844 92.0856 97.8125 92.8434 97.8125C94.4449 97.8125 95.6949 98.5156 96.3512 99.7188C96.6793 100.32 96.8434 101.016 96.8434 101.789ZM92.859 99.0703C91.4606 99.0703 90.4606 99.9922 90.3043 101.359H95.3434C95.2809 100.008 94.2965 99.0703 92.859 99.0703ZM101.937 106.25C100.429 106.25 99.1481 105.484 98.4449 104.195C98.0934 103.555 97.9137 102.836 97.9137 102.031C97.9137 101.234 98.0934 100.516 98.4449 99.8672C98.7965 99.2266 99.2809 98.7266 99.8981 98.3594C100.515 97.9922 101.211 97.8125 101.984 97.8125C103.078 97.8125 103.992 98.2344 104.609 98.8984C104.695 98.9844 104.718 99 104.781 99C104.875 99 104.921 98.9219 104.921 98.7656V94.7031H106.468V106H105.312C105.304 105.703 105.273 105.414 105.234 105.125C105.203 104.883 105.156 104.812 105.031 104.812C104.929 104.812 104.867 104.867 104.718 105.031C104.046 105.844 103.117 106.25 101.937 106.25ZM102.234 104.922C103.015 104.922 103.671 104.648 104.164 104.156C104.687 103.633 104.976 102.898 104.976 102.031C104.976 101.164 104.687 100.43 104.164 99.9062C103.671 99.4141 103.015 99.1406 102.234 99.1406C101.179 99.1406 100.312 99.6562 99.8512 100.531C99.6168 100.969 99.4996 101.469 99.4996 102.031C99.4996 103.156 99.984 104.062 100.82 104.555C101.234 104.797 101.711 104.922 102.234 104.922Z" fill="#3798A6"/>
<path d="M174.146 54.7708C173.594 54.7708 173.146 55.2185 173.146 55.7708C173.146 56.3231 173.594 56.7708 174.146 56.7708L174.146 54.7708ZM174.146 56.7708L247.805 56.7708L247.805 54.7708L174.146 54.7708L174.146 56.7708Z" fill="black"/>
<path d="M347.659 428C348.211 428 348.659 428.448 348.659 429C348.659 429.552 348.211 430 347.659 430L347.659 428ZM347.659 430L274 430L274 428L347.659 428L347.659 430Z" fill="black"/>
<path d="M413.28 380.34H420.184V382H411.034C411.034 379.852 411.591 378.27 412.938 376.883C413.612 376.189 414.52 375.525 415.673 374.871C416.913 374.168 417.548 373.621 417.86 372.986C418.007 372.674 418.085 372.312 418.085 371.893C418.085 370.564 417.216 369.773 415.839 369.773C414.237 369.773 413.261 370.76 413.095 372.566H411.093C411.288 369.803 413.095 368.084 415.868 368.084C418.427 368.084 420.077 369.539 420.077 371.971C420.077 373.172 419.686 374.061 418.69 374.949C418.192 375.398 417.499 375.887 416.61 376.404C415.116 377.293 414.227 378.025 413.729 378.885C413.485 379.314 413.329 379.803 413.28 380.34ZM427.225 382.322C425.116 382.322 423.485 381.18 422.626 379.041C422.186 377.977 421.972 376.697 421.972 375.203C421.972 372.225 422.88 370.047 424.462 368.924C425.253 368.367 426.171 368.084 427.225 368.084C429.335 368.084 430.975 369.227 431.845 371.365C432.274 372.43 432.489 373.709 432.489 375.203C432.489 378.182 431.591 380.359 429.999 381.482C429.208 382.039 428.28 382.322 427.225 382.322ZM427.225 380.584C429.305 380.584 430.429 378.465 430.429 375.203C430.429 371.941 429.305 369.822 427.225 369.822C425.165 369.822 424.032 371.941 424.032 375.203C424.032 378.465 425.165 380.584 427.225 380.584ZM437.616 368.406H439.091V382H437.108V371.834C436.747 372.215 436.278 372.566 435.682 372.879C435.087 373.201 434.462 373.426 433.817 373.562V371.688C435.77 371.209 437.157 370.008 437.616 368.406ZM447.02 372.967C448.71 372.967 450.116 373.768 450.868 375.125C451.249 375.799 451.434 376.561 451.434 377.41C451.434 379.314 450.565 380.867 449.081 381.697C448.339 382.117 447.489 382.322 446.542 382.322C443.612 382.322 441.786 380.604 441.337 378.035H443.368C443.651 379.637 444.813 380.652 446.503 380.652C448.28 380.652 449.481 379.383 449.481 377.518C449.481 375.74 448.241 374.5 446.493 374.5C445.321 374.5 444.393 374.988 443.856 375.887H441.825L442.919 368.406H450.419V370.076H444.569L443.944 374.285C444.618 373.436 445.722 372.967 447.02 372.967Z" fill="black"/>
<path d="M381.176 410.332C377.768 410.332 375.58 408.457 375.58 404.814V396.406H377.67V404.805C377.67 407.275 378.9 408.555 381.176 408.555C383.451 408.555 384.682 407.275 384.682 404.805V396.406H386.771V404.814C386.771 408.457 384.584 410.332 381.176 410.332ZM391.381 410H389.457V400.078H390.883C390.912 400.576 390.951 400.947 390.98 401.191C391.029 401.514 391.117 401.641 391.273 401.641C391.4 401.641 391.459 401.602 391.615 401.377C392.396 400.322 393.441 399.766 394.896 399.766C397.309 399.766 398.666 401.26 398.666 403.916V410H396.742V404.17C396.742 402.422 395.932 401.465 394.486 401.465C393.5 401.465 392.738 401.846 392.182 402.607C391.645 403.359 391.381 404.434 391.381 405.83V410ZM402.221 398.525C401.488 398.525 400.932 398.008 400.932 397.305C400.932 396.602 401.488 396.084 402.221 396.084C402.963 396.084 403.51 396.602 403.51 397.305C403.51 398.008 402.963 398.525 402.221 398.525ZM403.188 400.078V410H401.254V400.078H403.188ZM406.801 400.078L409.984 408.018L413.109 400.078H415.16L411.01 410H408.852L404.633 400.078H406.801ZM425.824 404.736C425.824 405.156 425.805 405.479 425.775 405.703H417.641C417.777 407.51 419.047 408.701 420.873 408.701C422.309 408.701 423.412 408.027 423.734 406.963H425.668C425.199 409.004 423.334 410.312 420.873 410.312C418.842 410.312 417.211 409.395 416.332 407.793C415.893 406.992 415.668 406.074 415.668 405.029C415.668 402.959 416.654 401.299 418.227 400.42C419.008 399.98 419.877 399.766 420.824 399.766C422.826 399.766 424.389 400.645 425.209 402.148C425.619 402.9 425.824 403.77 425.824 404.736ZM420.844 401.338C419.096 401.338 417.846 402.49 417.65 404.199H423.949C423.871 402.51 422.641 401.338 420.844 401.338ZM429.779 410H427.855V400.078H429.203C429.223 400.557 429.262 400.898 429.33 401.094C429.398 401.279 429.457 401.318 429.574 401.318C429.662 401.318 429.701 401.279 429.809 401.133C430.277 400.381 431.098 399.941 432.191 399.941C432.514 399.941 432.777 399.961 432.992 400.01V401.719C432.65 401.65 432.338 401.621 432.035 401.621C431.312 401.621 430.766 401.816 430.385 402.207C429.984 402.637 429.779 403.34 429.779 404.307V410ZM438.246 410.312C435.707 410.312 434.135 409.111 433.812 407.07H435.746C435.941 408.135 436.811 408.779 438.266 408.779C439.516 408.779 440.326 408.242 440.326 407.393C440.326 406.484 439.809 406.113 437.953 405.781C435.277 405.293 434.271 404.463 434.271 402.676C434.271 400.938 435.805 399.766 438.041 399.766C440.375 399.766 441.732 400.869 441.996 402.871H440.131C439.906 401.777 439.271 401.279 438.051 401.279C436.869 401.279 436.146 401.768 436.146 402.578C436.146 403.457 436.703 403.809 438.285 404.102C440.277 404.453 441.352 404.932 441.84 405.732C442.084 406.133 442.201 406.66 442.201 407.295C442.201 408.457 441.498 409.404 440.297 409.922C439.691 410.186 439.008 410.312 438.246 410.312ZM445.189 398.525C444.457 398.525 443.9 398.008 443.9 397.305C443.9 396.602 444.457 396.084 445.189 396.084C445.932 396.084 446.479 396.602 446.479 397.305C446.479 398.008 445.932 398.525 445.189 398.525ZM446.156 400.078V410H444.223V400.078H446.156ZM452.963 410.107C450.746 410.107 449.721 409.072 449.721 406.66V401.67H447.748V400.078H448.871C449.584 400.078 449.916 399.844 450.043 399.258C450.092 399.023 450.141 398.691 450.189 398.271C450.238 397.852 450.277 397.48 450.297 397.158H451.625V400.078H454.418V401.67H451.625V406.514C451.625 407.949 452.104 408.525 453.383 408.525C453.734 408.525 454.145 408.477 454.604 408.369V409.893C454.428 409.951 454.184 410 453.861 410.049C453.539 410.088 453.246 410.107 452.963 410.107ZM457.201 400.078L460.336 407.852L463.402 400.078H465.414L459.457 414.199H457.465L459.262 409.99L455.043 400.078H457.201ZM475.492 410.312C474.457 410.312 473.529 410.088 472.699 409.629C471.869 409.18 471.225 408.555 470.766 407.744C470.297 406.943 470.062 406.045 470.062 405.039C470.062 404.033 470.297 403.135 470.766 402.324C471.225 401.523 471.869 400.898 472.699 400.439C473.529 399.99 474.457 399.766 475.492 399.766C476.527 399.766 477.455 399.99 478.285 400.439C479.115 400.898 479.76 401.523 480.229 402.324C480.697 403.125 480.932 404.033 480.932 405.039C480.932 407.061 479.936 408.73 478.285 409.629C477.455 410.088 476.527 410.312 475.492 410.312ZM475.492 408.652C476.85 408.652 477.934 408.008 478.52 406.914C478.803 406.367 478.949 405.742 478.949 405.039C478.949 403.633 478.344 402.5 477.299 401.885C476.771 401.582 476.166 401.426 475.492 401.426C473.451 401.426 472.045 402.92 472.045 405.039C472.045 407.158 473.451 408.652 475.492 408.652ZM485.492 410H483.588V401.67H481.615V400.078H483.588V399.043C483.588 396.768 484.711 395.635 486.889 395.635C487.445 395.635 488.109 395.742 488.471 395.898V397.402C488.1 397.275 487.699 397.217 487.27 397.217C486.029 397.217 485.492 397.842 485.492 399.102V400.078H488.275V401.67H485.492V410ZM380.961 424.406V438H378.881V424.406H380.961ZM385.824 438H383.9V428.078H385.326C385.355 428.576 385.395 428.947 385.424 429.191C385.473 429.514 385.561 429.641 385.717 429.641C385.844 429.641 385.902 429.602 386.059 429.377C386.84 428.322 387.885 427.766 389.34 427.766C391.752 427.766 393.109 429.26 393.109 431.916V438H391.186V432.17C391.186 430.422 390.375 429.465 388.93 429.465C387.943 429.465 387.182 429.846 386.625 430.607C386.088 431.359 385.824 432.434 385.824 433.83V438ZM398.334 438H396.43V429.67H394.457V428.078H396.43V427.043C396.43 424.768 397.553 423.635 399.73 423.635C400.287 423.635 400.951 423.742 401.312 423.898V425.402C400.941 425.275 400.541 425.217 400.111 425.217C398.871 425.217 398.334 425.842 398.334 427.102V428.078H401.117V429.67H398.334V438ZM406.908 438.312C405.873 438.312 404.945 438.088 404.115 437.629C403.285 437.18 402.641 436.555 402.182 435.744C401.713 434.943 401.479 434.045 401.479 433.039C401.479 432.033 401.713 431.135 402.182 430.324C402.641 429.523 403.285 428.898 404.115 428.439C404.945 427.99 405.873 427.766 406.908 427.766C407.943 427.766 408.871 427.99 409.701 428.439C410.531 428.898 411.176 429.523 411.645 430.324C412.113 431.125 412.348 432.033 412.348 433.039C412.348 435.061 411.352 436.73 409.701 437.629C408.871 438.088 407.943 438.312 406.908 438.312ZM406.908 436.652C408.266 436.652 409.35 436.008 409.936 434.914C410.219 434.367 410.365 433.742 410.365 433.039C410.365 431.633 409.76 430.5 408.715 429.885C408.188 429.582 407.582 429.426 406.908 429.426C404.867 429.426 403.461 430.92 403.461 433.039C403.461 435.158 404.867 436.652 406.908 436.652ZM416.273 438H414.35V428.078H415.697C415.717 428.557 415.756 428.898 415.824 429.094C415.893 429.279 415.951 429.318 416.068 429.318C416.156 429.318 416.195 429.279 416.303 429.133C416.771 428.381 417.592 427.941 418.686 427.941C419.008 427.941 419.271 427.961 419.486 428.01V429.719C419.145 429.65 418.832 429.621 418.529 429.621C417.807 429.621 417.26 429.816 416.879 430.207C416.479 430.637 416.273 431.34 416.273 432.307V438ZM423.109 438H421.186V428.078H422.602C422.611 428.186 422.621 428.273 422.621 428.342C422.67 428.859 422.699 429.143 422.709 429.191C422.758 429.514 422.846 429.641 423.002 429.641C423.129 429.641 423.178 429.602 423.324 429.396C424.135 428.303 425.082 427.766 426.4 427.766C427.836 427.766 428.754 428.303 429.35 429.465C429.496 429.768 429.584 429.846 429.711 429.846C429.857 429.846 429.955 429.777 430.121 429.533C430.971 428.312 431.947 427.766 433.285 427.766C435.502 427.766 436.82 429.289 436.82 431.818V438H434.896V432.121C434.896 430.432 434.135 429.455 432.807 429.455C431.908 429.455 431.225 429.846 430.707 430.637C430.209 431.389 429.965 432.443 429.965 433.801V438H428.041V432.121C428.041 430.412 427.289 429.455 425.951 429.455C425.062 429.455 424.379 429.846 423.861 430.637C423.324 431.457 423.109 432.512 423.109 433.801V438ZM443.441 427.766C446.166 427.766 447.602 429.25 447.602 431.955V438H446.205C446.176 437.424 446.127 437.043 446.059 436.857C446.01 436.701 445.941 436.633 445.824 436.633C445.678 436.633 445.609 436.701 445.443 436.936C444.789 437.854 443.783 438.312 442.416 438.312C440.229 438.312 438.725 437.131 438.725 435.109C438.725 433.264 440.043 432.268 442.67 432.111C444.184 432.023 445.199 431.896 445.727 431.74C445.717 430.178 444.887 429.338 443.402 429.338C442.113 429.338 441.254 429.973 440.971 431.027H439.027C439.438 429.064 441.049 427.766 443.441 427.766ZM445.316 435.324C445.59 434.748 445.727 434.035 445.727 433.186V433.117C445.248 433.273 444.408 433.371 442.846 433.518C441.283 433.645 440.639 434.113 440.639 435.08C440.639 436.174 441.479 436.789 442.797 436.789C444.008 436.789 444.848 436.301 445.316 435.324ZM454.105 438.107C451.889 438.107 450.863 437.072 450.863 434.66V429.67H448.891V428.078H450.014C450.727 428.078 451.059 427.844 451.186 427.258C451.234 427.023 451.283 426.691 451.332 426.271C451.381 425.852 451.42 425.48 451.439 425.158H452.768V428.078H455.561V429.67H452.768V434.514C452.768 435.949 453.246 436.525 454.525 436.525C454.877 436.525 455.287 436.477 455.746 436.369V437.893C455.57 437.951 455.326 438 455.004 438.049C454.682 438.088 454.389 438.107 454.105 438.107ZM458.441 426.525C457.709 426.525 457.152 426.008 457.152 425.305C457.152 424.602 457.709 424.084 458.441 424.084C459.184 424.084 459.73 424.602 459.73 425.305C459.73 426.008 459.184 426.525 458.441 426.525ZM459.408 428.078V438H457.475V428.078H459.408ZM466.85 438.312C465.814 438.312 464.887 438.088 464.057 437.629C463.227 437.18 462.582 436.555 462.123 435.744C461.654 434.943 461.42 434.045 461.42 433.039C461.42 432.033 461.654 431.135 462.123 430.324C462.582 429.523 463.227 428.898 464.057 428.439C464.887 427.99 465.814 427.766 466.85 427.766C467.885 427.766 468.812 427.99 469.643 428.439C470.473 428.898 471.117 429.523 471.586 430.324C472.055 431.125 472.289 432.033 472.289 433.039C472.289 435.061 471.293 436.73 469.643 437.629C468.812 438.088 467.885 438.312 466.85 438.312ZM466.85 436.652C468.207 436.652 469.291 436.008 469.877 434.914C470.16 434.367 470.307 433.742 470.307 433.039C470.307 431.633 469.701 430.5 468.656 429.885C468.129 429.582 467.523 429.426 466.85 429.426C464.809 429.426 463.402 430.92 463.402 433.039C463.402 435.158 464.809 436.652 466.85 436.652ZM476.215 438H474.291V428.078H475.717C475.746 428.576 475.785 428.947 475.814 429.191C475.863 429.514 475.951 429.641 476.107 429.641C476.234 429.641 476.293 429.602 476.449 429.377C477.23 428.322 478.275 427.766 479.73 427.766C482.143 427.766 483.5 429.26 483.5 431.916V438H481.576V432.17C481.576 430.422 480.766 429.465 479.32 429.465C478.334 429.465 477.572 429.846 477.016 430.607C476.479 431.359 476.215 432.434 476.215 433.83V438ZM383.676 454.154V466H381.596V454.154H377.279V452.406H388.012V454.154H383.676ZM397.25 460.736C397.25 461.156 397.23 461.479 397.201 461.703H389.066C389.203 463.51 390.473 464.701 392.299 464.701C393.734 464.701 394.838 464.027 395.16 462.963H397.094C396.625 465.004 394.76 466.312 392.299 466.312C390.268 466.312 388.637 465.395 387.758 463.793C387.318 462.992 387.094 462.074 387.094 461.029C387.094 458.959 388.08 457.299 389.652 456.42C390.434 455.98 391.303 455.766 392.25 455.766C394.252 455.766 395.814 456.645 396.635 458.148C397.045 458.9 397.25 459.77 397.25 460.736ZM392.27 457.338C390.521 457.338 389.271 458.49 389.076 460.199H395.375C395.297 458.51 394.066 457.338 392.27 457.338ZM403.91 466.312C401.85 466.312 400.17 465.365 399.271 463.764C398.812 462.963 398.588 462.055 398.588 461.039C398.588 458.998 399.535 457.338 401.146 456.439C401.957 455.99 402.875 455.766 403.91 455.766C405.941 455.766 407.426 456.635 408.217 457.885C408.607 458.51 408.832 459.164 408.891 459.857H406.986C406.84 459.105 406.498 458.52 405.961 458.08C405.414 457.641 404.74 457.426 403.939 457.426C402.611 457.426 401.557 458.061 400.99 459.154C400.707 459.711 400.561 460.336 400.561 461.039C400.561 462.445 401.156 463.588 402.182 464.193C402.689 464.496 403.275 464.652 403.939 464.652C404.74 464.652 405.414 464.438 405.961 463.998C406.498 463.559 406.84 462.973 406.986 462.221H408.891C408.773 463.598 407.982 464.936 406.527 465.717C405.795 466.117 404.926 466.312 403.91 466.312ZM412.709 466H410.785V451.879H412.709V457.182C412.709 457.377 412.768 457.475 412.875 457.475C412.982 457.475 413.031 457.445 413.197 457.221C413.949 456.244 414.975 455.756 416.293 455.756C418.617 455.756 419.994 457.27 419.994 459.926V466H418.07V460.16C418.07 458.432 417.26 457.455 415.824 457.455C414.838 457.455 414.066 457.836 413.52 458.607C412.934 459.418 412.709 460.492 412.709 461.83V466ZM424.486 466H422.562V456.078H423.988C424.018 456.576 424.057 456.947 424.086 457.191C424.135 457.514 424.223 457.641 424.379 457.641C424.506 457.641 424.564 457.602 424.721 457.377C425.502 456.322 426.547 455.766 428.002 455.766C430.414 455.766 431.771 457.26 431.771 459.916V466H429.848V460.17C429.848 458.422 429.037 457.465 427.592 457.465C426.605 457.465 425.844 457.846 425.287 458.607C424.75 459.359 424.486 460.434 424.486 461.83V466ZM439.066 466.312C438.031 466.312 437.104 466.088 436.273 465.629C435.443 465.18 434.799 464.555 434.34 463.744C433.871 462.943 433.637 462.045 433.637 461.039C433.637 460.033 433.871 459.135 434.34 458.324C434.799 457.523 435.443 456.898 436.273 456.439C437.104 455.99 438.031 455.766 439.066 455.766C440.102 455.766 441.029 455.99 441.859 456.439C442.689 456.898 443.334 457.523 443.803 458.324C444.271 459.125 444.506 460.033 444.506 461.039C444.506 463.061 443.51 464.73 441.859 465.629C441.029 466.088 440.102 466.312 439.066 466.312ZM439.066 464.652C440.424 464.652 441.508 464.008 442.094 462.914C442.377 462.367 442.523 461.742 442.523 461.039C442.523 459.633 441.918 458.5 440.873 457.885C440.346 457.582 439.74 457.426 439.066 457.426C437.025 457.426 435.619 458.92 435.619 461.039C435.619 463.158 437.025 464.652 439.066 464.652ZM448.461 451.879V466H446.527V451.879H448.461ZM455.902 466.312C454.867 466.312 453.939 466.088 453.109 465.629C452.279 465.18 451.635 464.555 451.176 463.744C450.707 462.943 450.473 462.045 450.473 461.039C450.473 460.033 450.707 459.135 451.176 458.324C451.635 457.523 452.279 456.898 453.109 456.439C453.939 455.99 454.867 455.766 455.902 455.766C456.938 455.766 457.865 455.99 458.695 456.439C459.525 456.898 460.17 457.523 460.639 458.324C461.107 459.125 461.342 460.033 461.342 461.039C461.342 463.061 460.346 464.73 458.695 465.629C457.865 466.088 456.938 466.312 455.902 466.312ZM455.902 464.652C457.26 464.652 458.344 464.008 458.93 462.914C459.213 462.367 459.359 461.742 459.359 461.039C459.359 459.633 458.754 458.5 457.709 457.885C457.182 457.582 456.576 457.426 455.902 457.426C453.861 457.426 452.455 458.92 452.455 461.039C452.455 463.158 453.861 464.652 455.902 464.652ZM468.129 470.375C465.395 470.375 463.51 468.832 463.041 466.703H464.984C465.346 467.992 466.557 468.773 468.158 468.773C470.111 468.773 471.166 467.758 471.166 465.854V464.662C471.166 464.486 471.107 464.398 470.99 464.398C470.922 464.398 470.844 464.447 470.756 464.555C470.014 465.365 468.9 465.795 467.611 465.795C465.736 465.795 464.174 464.887 463.324 463.373C462.895 462.621 462.68 461.771 462.68 460.824C462.68 458.871 463.598 457.27 465.072 456.41C465.805 455.98 466.625 455.766 467.514 455.766C468.93 455.766 469.984 456.244 470.873 457.211C471.098 457.436 471.146 457.475 471.264 457.475C471.41 457.475 471.479 457.367 471.518 457.094C471.557 456.781 471.605 456.361 471.615 456.078H473.051V465.814C473.051 468.646 471.117 470.375 468.129 470.375ZM467.943 464.203C468.871 464.203 469.672 463.891 470.229 463.334C470.854 462.738 471.215 461.85 471.215 460.824C471.215 459.799 470.863 458.92 470.229 458.305C469.672 457.748 468.871 457.436 467.943 457.436C466.02 457.436 464.662 458.842 464.662 460.824C464.662 462.123 465.248 463.197 466.244 463.773C466.742 464.057 467.309 464.203 467.943 464.203ZM476.635 456.078L479.77 463.852L482.836 456.078H484.848L478.891 470.199H476.898L478.695 465.99L474.477 456.078H476.635Z" fill="#1C1D20"/>
<path d="M404.827 486.883C404.897 487.422 405.054 487.852 405.21 488H403.475C403.358 487.898 403.241 487.547 403.179 487.078C403.147 486.836 403.108 486.469 403.054 485.992C402.999 485.5 402.96 485.133 402.921 484.891C402.827 484.18 402.663 483.805 402.194 483.594C401.952 483.492 401.616 483.438 401.179 483.438H398.421V488H396.764V477.125H401.35C403.593 477.125 404.897 478.211 404.897 480.062C404.897 481.375 404.218 482.328 402.991 482.695C403.991 482.852 404.35 483.383 404.538 484.648C404.593 485 404.639 485.375 404.679 485.758C404.686 485.852 404.71 486.016 404.741 486.25C404.764 486.484 404.796 486.695 404.827 486.883ZM398.421 482.117H401.116C402.585 482.117 403.249 481.547 403.249 480.305C403.249 479.078 402.554 478.469 401.163 478.469H398.421V482.117ZM414.343 483.789C414.343 484.125 414.327 484.383 414.304 484.562H407.796C407.905 486.008 408.921 486.961 410.382 486.961C411.53 486.961 412.413 486.422 412.671 485.57H414.218C413.843 487.203 412.35 488.25 410.382 488.25C408.757 488.25 407.452 487.516 406.749 486.234C406.397 485.594 406.218 484.859 406.218 484.023C406.218 482.367 407.007 481.039 408.264 480.336C408.889 479.984 409.585 479.812 410.343 479.812C411.944 479.812 413.194 480.516 413.85 481.719C414.179 482.32 414.343 483.016 414.343 483.789ZM410.358 481.07C408.96 481.07 407.96 481.992 407.804 483.359H412.843C412.78 482.008 411.796 481.07 410.358 481.07ZM417.507 488H415.968V480.062H417.108C417.132 480.461 417.163 480.758 417.186 480.953C417.225 481.211 417.296 481.312 417.421 481.312C417.522 481.312 417.569 481.281 417.694 481.102C418.319 480.258 419.155 479.812 420.319 479.812C422.249 479.812 423.335 481.008 423.335 483.133V488H421.796V483.336C421.796 481.938 421.147 481.172 419.991 481.172C419.202 481.172 418.593 481.477 418.147 482.086C417.718 482.688 417.507 483.547 417.507 484.664V488ZM428.632 479.812C430.811 479.812 431.96 481 431.96 483.164V488H430.843C430.819 487.539 430.78 487.234 430.725 487.086C430.686 486.961 430.632 486.906 430.538 486.906C430.421 486.906 430.366 486.961 430.233 487.148C429.71 487.883 428.905 488.25 427.811 488.25C426.061 488.25 424.858 487.305 424.858 485.688C424.858 484.211 425.913 483.414 428.014 483.289C429.225 483.219 430.038 483.117 430.46 482.992C430.452 481.742 429.788 481.07 428.6 481.07C427.569 481.07 426.882 481.578 426.655 482.422H425.1C425.429 480.852 426.718 479.812 428.632 479.812ZM430.132 485.859C430.35 485.398 430.46 484.828 430.46 484.148V484.094C430.077 484.219 429.405 484.297 428.155 484.414C426.905 484.516 426.389 484.891 426.389 485.664C426.389 486.539 427.061 487.031 428.116 487.031C429.085 487.031 429.757 486.641 430.132 485.859ZM435.554 488H434.014V480.062H435.147C435.155 480.148 435.163 480.219 435.163 480.273C435.202 480.688 435.225 480.914 435.233 480.953C435.272 481.211 435.343 481.312 435.468 481.312C435.569 481.312 435.608 481.281 435.725 481.117C436.374 480.242 437.132 479.812 438.186 479.812C439.335 479.812 440.069 480.242 440.546 481.172C440.663 481.414 440.733 481.477 440.835 481.477C440.952 481.477 441.03 481.422 441.163 481.227C441.843 480.25 442.624 479.812 443.694 479.812C445.468 479.812 446.522 481.031 446.522 483.055V488H444.983V483.297C444.983 481.945 444.374 481.164 443.311 481.164C442.593 481.164 442.046 481.477 441.632 482.109C441.233 482.711 441.038 483.555 441.038 484.641V488H439.499V483.297C439.499 481.93 438.897 481.164 437.827 481.164C437.116 481.164 436.569 481.477 436.155 482.109C435.725 482.766 435.554 483.609 435.554 484.641V488ZM456.155 483.789C456.155 484.125 456.139 484.383 456.116 484.562H449.608C449.718 486.008 450.733 486.961 452.194 486.961C453.343 486.961 454.225 486.422 454.483 485.57H456.03C455.655 487.203 454.163 488.25 452.194 488.25C450.569 488.25 449.264 487.516 448.561 486.234C448.21 485.594 448.03 484.859 448.03 484.023C448.03 482.367 448.819 481.039 450.077 480.336C450.702 479.984 451.397 479.812 452.155 479.812C453.757 479.812 455.007 480.516 455.663 481.719C455.991 482.32 456.155 483.016 456.155 483.789ZM452.171 481.07C450.772 481.07 449.772 481.992 449.616 483.359H454.655C454.593 482.008 453.608 481.07 452.171 481.07ZM461.249 488.25C459.741 488.25 458.46 487.484 457.757 486.195C457.405 485.555 457.225 484.836 457.225 484.031C457.225 483.234 457.405 482.516 457.757 481.867C458.108 481.227 458.593 480.727 459.21 480.359C459.827 479.992 460.522 479.812 461.296 479.812C462.389 479.812 463.304 480.234 463.921 480.898C464.007 480.984 464.03 481 464.093 481C464.186 481 464.233 480.922 464.233 480.766V476.703H465.78V488H464.624C464.616 487.703 464.585 487.414 464.546 487.125C464.514 486.883 464.468 486.812 464.343 486.812C464.241 486.812 464.179 486.867 464.03 487.031C463.358 487.844 462.429 488.25 461.249 488.25ZM461.546 486.922C462.327 486.922 462.983 486.648 463.475 486.156C463.999 485.633 464.288 484.898 464.288 484.031C464.288 483.164 463.999 482.43 463.475 481.906C462.983 481.414 462.327 481.141 461.546 481.141C460.491 481.141 459.624 481.656 459.163 482.531C458.929 482.969 458.811 483.469 458.811 484.031C458.811 485.156 459.296 486.062 460.132 486.555C460.546 486.797 461.022 486.922 461.546 486.922Z" fill="#3798A6"/>
</svg>
