<svg width="10" height="10" viewBox="0 0 10 10" fill="none" xmlns="http://www.w3.org/2000/svg">
<path d="M4.25176 0.779561L4.74724 0.284081C4.95704 0.0742832 5.29628 0.0742832 5.50385 0.284081L9.84265 4.62065C10.0524 4.83045 10.0524 5.1697 9.84265 5.37726L5.50385 9.71606C5.29405 9.92586 4.9548 9.92586 4.74724 9.71606L4.25176 9.22058C4.03973 9.00855 4.04419 8.66261 4.26069 8.45504L6.95012 5.89283H0.535655C0.238813 5.89283 5.96046e-07 5.65402 5.96046e-07 5.35718V4.64297C5.96046e-07 4.34613 0.238813 4.10731 0.535655 4.10731H6.95012L4.26069 1.5451C4.04196 1.33753 4.0375 0.991591 4.25176 0.779561Z" fill="#1C1D20"/>
</svg>
