<svg width="28" height="39" viewBox="0 0 28 39" fill="none" xmlns="http://www.w3.org/2000/svg">
<path d="M16.7863 13.9291C16.7863 15.4282 15.571 16.6435 14.0719 16.6435C12.5729 16.6435 11.3576 15.4282 11.3576 13.9291C11.3576 12.43 12.5729 11.2147 14.0719 11.2147C15.571 11.2147 16.7863 12.43 16.7863 13.9291Z" fill="black"/>
<path fill-rule="evenodd" clip-rule="evenodd" d="M0.5 13.3353C0.5 6.18034 6.58882 0.357147 14.0719 0.357147C21.5551 0.357147 27.6439 6.18034 27.6439 13.3353C27.6439 16.7444 26.0905 21.2758 23.0329 26.8038C20.573 31.2435 17.7247 35.2582 16.2469 37.2559C15.9968 37.5972 15.6699 37.8748 15.2922 38.0661C14.9149 38.2575 14.4978 38.3571 14.0746 38.3571C13.8771 38.3571 13.681 38.3354 13.4897 38.2929C13.271 38.2442 13.058 38.1682 12.8566 38.0661C12.4793 37.8748 12.1523 37.5972 11.9023 37.2559C10.4218 35.2582 7.57623 31.2435 5.11632 26.8038C2.05335 21.274 0.5 16.7427 0.5 13.3353ZM11.0558 18.443C11.9487 19.0395 12.9984 19.3579 14.0719 19.3579C15.5113 19.3563 16.891 18.7838 17.9089 17.7661C18.9268 16.7483 19.499 15.3684 19.5007 13.9291C19.5007 12.8554 19.1822 11.8058 18.5858 10.913C17.9893 10.0203 17.1415 9.32442 16.1493 8.91356C15.1574 8.50269 14.0658 8.39516 13.013 8.60463C11.9597 8.8141 10.9926 9.33116 10.2332 10.0904C9.47418 10.8496 8.95684 11.8169 8.74743 12.87C8.53802 13.9231 8.64537 15.0146 9.05624 16.0066C9.46711 16.9986 10.1629 17.8464 11.0558 18.443Z" fill="black"/>
</svg>
