<svg width="38" height="31" viewBox="0 0 38 31" fill="none" xmlns="http://www.w3.org/2000/svg">
<path d="M33.25 0.5H4.75C3.49064 0.501347 2.28324 1.00222 1.39273 1.89273C0.502225 2.78324 0.00134716 3.99064 0 5.25V25.6071C0.00134716 26.8665 0.502225 28.0739 1.39273 28.9644C2.28324 29.8549 3.49064 30.3558 4.75 30.3571H33.25C34.5094 30.3558 35.7168 29.8549 36.6073 28.9644C37.4978 28.0739 37.9987 26.8665 38 25.6071V5.25C37.9987 3.99064 37.4978 2.78324 36.6073 1.89273C35.7168 1.00222 34.5094 0.501347 33.25 0.5ZM32.0472 8.35701L19.8329 17.857C19.5948 18.0422 19.3017 18.1427 19 18.1427C18.6983 18.1427 18.4052 18.0422 18.1671 17.857L5.95277 8.35701C5.80926 8.24864 5.68872 8.11282 5.59816 7.95746C5.50759 7.8021 5.44881 7.63029 5.42522 7.45202C5.40163 7.27374 5.41371 7.09255 5.46075 6.91899C5.50779 6.74542 5.58885 6.58293 5.69924 6.44096C5.80962 6.299 5.94711 6.18038 6.10373 6.09201C6.26035 6.00364 6.43297 5.94728 6.61156 5.9262C6.79015 5.90512 6.97115 5.91975 7.14404 5.96923C7.31693 6.01871 7.47826 6.10205 7.61866 6.21442L19 15.0664L30.3813 6.21442C30.6659 5.9995 31.0237 5.90524 31.3772 5.95202C31.7308 5.9988 32.0517 6.18287 32.2706 6.46441C32.4895 6.74595 32.5888 7.10234 32.547 7.45651C32.5052 7.81068 32.3257 8.13417 32.0472 8.35701Z" fill="black"/>
</svg>
