<svg width="40" height="41" viewBox="0 0 40 41" fill="none" xmlns="http://www.w3.org/2000/svg">
<path d="M40 31.8052C40 32.3166 39.9053 32.9842 39.7159 33.808C39.5265 34.6319 39.3277 35.2806 39.1193 35.7541C38.7216 36.701 37.5663 37.7048 35.6534 38.7654C33.8731 39.7313 32.1117 40.2143 30.3693 40.2143C29.858 40.2143 29.3561 40.1812 28.8636 40.1149C28.3712 40.0486 27.8267 39.9302 27.2301 39.7598C26.6335 39.5893 26.1884 39.452 25.8949 39.3478C25.6013 39.2436 25.0758 39.0495 24.3182 38.7654C23.5606 38.4813 23.0966 38.3109 22.9261 38.2541C21.0701 37.5912 19.4129 36.8052 17.9545 35.8961C15.5492 34.3999 13.0492 32.3544 10.4545 29.7598C7.85985 27.1651 5.81439 24.6651 4.31818 22.2597C3.40909 20.8014 2.62311 19.1442 1.96023 17.2882C1.90341 17.1177 1.73295 16.6537 1.44886 15.8961C1.16477 15.1385 0.970644 14.613 0.866477 14.3194C0.762311 14.0258 0.625 13.5808 0.454545 12.9842C0.284091 12.3876 0.16572 11.8431 0.0994318 11.3507C0.0331439 10.8582 0 10.3563 0 9.84498C0 8.10255 0.482954 6.34119 1.44886 4.56089C2.50947 2.64801 3.51326 1.4927 4.46023 1.09498C4.93371 0.886643 5.58239 0.687779 6.40625 0.498385C7.23011 0.308991 7.89773 0.214294 8.40909 0.214294C8.67424 0.214294 8.87311 0.242704 9.00568 0.299522C9.34659 0.413158 9.84848 1.13286 10.5114 2.45861C10.7197 2.81846 11.0038 3.32982 11.3636 3.9927C11.7235 4.65558 12.0549 5.25691 12.358 5.79668C12.661 6.33645 12.9545 6.84308 13.2386 7.31657C13.2955 7.39232 13.4612 7.62907 13.7358 8.02679C14.0104 8.42452 14.214 8.7607 14.3466 9.03532C14.4792 9.30994 14.5455 9.57983 14.5455 9.84498C14.5455 10.2238 14.2756 10.6972 13.7358 11.2654C13.196 11.8336 12.6089 12.3544 11.9744 12.8279C11.34 13.3014 10.7528 13.8033 10.2131 14.3336C9.6733 14.8639 9.40341 15.2995 9.40341 15.6404C9.40341 15.8109 9.45076 16.024 9.54545 16.2796C9.64015 16.5353 9.72064 16.7294 9.78693 16.862C9.85322 16.9946 9.9858 17.2219 10.1847 17.5438C10.3835 17.8658 10.4924 18.0457 10.5114 18.0836C11.9508 20.6783 13.5985 22.9037 15.4545 24.7597C17.3106 26.6158 19.536 28.2635 22.1307 29.7029C22.1686 29.7219 22.3485 29.8308 22.6705 30.0296C22.9924 30.2285 23.2197 30.3611 23.3523 30.4274C23.4848 30.4937 23.679 30.5741 23.9347 30.6688C24.1903 30.7635 24.4034 30.8109 24.5739 30.8109C24.9148 30.8109 25.3504 30.541 25.8807 30.0012C26.411 29.4615 26.9129 28.8743 27.3864 28.2399C27.8598 27.6054 28.3807 27.0183 28.9489 26.4785C29.517 25.9387 29.9905 25.6688 30.3693 25.6688C30.6345 25.6688 30.9044 25.7351 31.179 25.8677C31.4536 26.0003 31.7898 26.2039 32.1875 26.4785C32.5852 26.7531 32.822 26.9188 32.8977 26.9757C33.3712 27.2597 33.8778 27.5533 34.4176 27.8563C34.9574 28.1594 35.5587 28.4908 36.2216 28.8507C36.8845 29.2105 37.3958 29.4946 37.7557 29.7029C39.0814 30.3658 39.8011 30.8677 39.9148 31.2086C39.9716 31.3412 40 31.5401 40 31.8052Z" fill="black"/>
</svg>
