<svg width="12" height="13" viewBox="0 0 12 13" fill="none" xmlns="http://www.w3.org/2000/svg">
<path d="M6.89789 11.6453L6.30331 12.2399C6.05156 12.4916 5.64446 12.4916 5.39538 12.2399L0.188818 7.03598C-0.0629394 6.78422 -0.0629394 6.37713 0.188818 6.12805L5.39538 0.921484C5.64714 0.669727 6.05423 0.669727 6.30331 0.921484L6.89789 1.51606C7.15233 1.7705 7.14697 2.18563 6.88718 2.43471L3.65986 5.50937H11.3572C11.7134 5.50937 12 5.79594 12 6.15215V7.0092C12 7.36541 11.7134 7.65198 11.3572 7.65198H3.65986L6.88718 10.7266C7.14965 10.9757 7.155 11.3909 6.89789 11.6453Z" fill="#1C1D20" fill-opacity="0.5"/>
</svg>
