<svg width="18" height="19" viewBox="0 0 18 19" fill="none" xmlns="http://www.w3.org/2000/svg">
<path d="M9 0.428711C7.21997 0.428711 5.47991 0.956552 3.99987 1.94548C2.51983 2.93442 1.36628 4.34002 0.685088 5.98456C0.00389956 7.62909 -0.17433 9.43869 0.172937 11.1845C0.520203 12.9304 1.37737 14.534 2.63604 15.7927C3.89472 17.0513 5.49836 17.9085 7.24419 18.2558C8.99002 18.603 10.7996 18.4248 12.4442 17.7436C14.0887 17.0624 15.4943 15.9089 16.4832 14.4288C17.4722 12.9488 18 11.2087 18 9.42871C18 8.24681 17.7672 7.07649 17.3149 5.98456C16.8626 4.89263 16.1997 3.90048 15.364 3.06475C14.5282 2.22902 13.5361 1.56609 12.4442 1.1138C11.3522 0.661503 10.1819 0.428711 9 0.428711ZM12.87 7.27771L8.757 12.6777C8.67316 12.7866 8.56549 12.8749 8.44224 12.9357C8.31899 12.9966 8.18345 13.0284 8.046 13.0287C7.9093 13.0294 7.77422 12.999 7.65103 12.9398C7.52783 12.8805 7.41976 12.794 7.335 12.6867L5.139 9.88771C5.06632 9.79434 5.01273 9.68757 4.98131 9.57349C4.94989 9.45941 4.94124 9.34026 4.95587 9.22284C4.97049 9.10542 5.0081 8.99203 5.06655 8.88915C5.12499 8.78626 5.20313 8.6959 5.2965 8.62321C5.48507 8.47641 5.72423 8.41054 5.96137 8.44007C6.07879 8.4547 6.19218 8.49231 6.29507 8.55075C6.39795 8.6092 6.48832 8.68734 6.561 8.78071L8.028 10.6527L11.43 6.15271C11.5021 6.05816 11.5921 5.97873 11.6949 5.91897C11.7977 5.8592 11.9113 5.82027 12.0291 5.80439C12.1469 5.78851 12.2667 5.796 12.3817 5.82642C12.4966 5.85685 12.6045 5.90961 12.699 5.98171C12.7936 6.05381 12.873 6.14382 12.9327 6.24661C12.9925 6.3494 13.0314 6.46296 13.0473 6.58079C13.0632 6.69863 13.0557 6.81844 13.0253 6.93339C12.9949 7.04833 12.9421 7.15616 12.87 7.25071V7.27771Z" fill="#3798A6"/>
</svg>
